{"title":"Heartless (2014) DTH Rip - XviD - [1CD] - Eng Subs - Team IcTv E","uid":11972947,"size":739883186,"categoryP":"video","categoryS":"movies","magnet":"?xt=urn:btih:09fd77e6d67889b0f9e5fb3c9f0b72a8a60b9a1f&amp;dn=Heartless+%282014%29+DTH+Rip+-+XviD+-+%5B1CD%5D+-+Eng+Subs+-+Team+IcTv+E&amp;tr=udp%3A%2F%2Ftracker.openbittorrent.com%3A80&amp;tr=udp%3A%2F%2Fopen.demonii.com%3A1337&amp;tr=udp%3A%2F%2Ftracker.coppersurfer.tk%3A6969&amp;tr=udp%3A%2F%2Fexodus.desync.com%3A6969","seeders":6,"leechers":2,"uploader":"SS132203","files":3,"time":1432905592,"description":"Heartless (2014) DTH Rip - XviD - [1CD] - Eng Subs - Team IcTv Exclusive\n &lt;a href=&quot;\nhttp://imgsparrow.co/image/bN&quot; rel=&quot;nofollow&quot; target=&quot;_NEW&quot;&gt;\nhttp://imgsparrow.co/image/bN&lt;/a&gt;\n &lt;a href=&quot;\nhttp://imgsparrow.co/image/TR&quot; rel=&quot;nofollow&quot; target=&quot;_NEW&quot;&gt;\nhttp://imgsparrow.co/image/TR&lt;/a&gt;\n\nInfo : - \n\nAll Credit Goes To Intellect Clever &amp; IcTv\nSample Within Torrent\n\nMovie Info\nBanner : Windmill Production's\nYear : 2014\nCast : Shekhar Suman.Adhyayan Suman.Ariana Ayam\nVideo: XviD\nAudio : MP3\nGenre : Drama\nSubtitles : None\nResolution : 640 x 300\nRuntime : 2hr 05min\nSource : Team IcTv\n\nFormat                      : AVI\nFormat/Info                 : Audio Video Interleave\nFile size                   : 693 MiB\nDuration                    : 2h 5mn\nOverall bit rate            : 772 Kbps\n\nVideo\nID                          : 0\nFormat                      : MPEG-4 Visual\nFormat profile              : Advanced Simple@L5\nFormat settings, BVOP       : 2\nFormat settings, QPel       : No\nFormat settings, GMC        : No warppoints\nFormat settings, Matrix     : Default (H.263)\nCodec ID                    : XVID\nCodec ID/Hint               : XviD\nDuration                    : 2h 5mn\nBit rate                    : 638 Kbps\nWidth                       : 640 pixels\nHeight                      : 300 pixels\nDisplay aspect ratio        : 2.133\nFrame rate                  : 25.000 fps\nColor space                 : YUV\nChroma subsampling          : 4:2:0\nBit depth                   : 8 bits\nScan type                   : Progressive\nCompression mode            : Lossy\nBits/(Pixel*Frame)          : 0.133\nStream size                 : 572 MiB (83%)\n\nAudio\nID                          : 1\nFormat                      : MPEG Audio\nFormat version              : Version 1\nFormat profile              : Layer 3\nMode                        : Joint stereo\nMode extension              : MS Stereo\nCodec ID                    : 55\nCodec ID/Hint               : MP3\nDuration                    : 2h 5mn\nBit rate mode               : Constant\nBit rate                    : 128 Kbps\nChannel(s)                  : 2 channels\nSampling rate               : 48.0 KHz\nCompression mode            : Lossy\nStream size                 : 115 MiB (17%)\n\nScreens : - \n &lt;a href=&quot;\nhttp://imgsparrow.co/image/Tv&quot; rel=&quot;nofollow&quot; target=&quot;_NEW&quot;&gt;\nhttp://imgsparrow.co/image/Tv&lt;/a&gt; &lt;a href=&quot;\nhttp://imgsparrow.co/image/Tx&quot; rel=&quot;nofollow&quot; target=&quot;_NEW&quot;&gt;\nhttp://imgsparrow.co/image/Tx&lt;/a&gt; &lt;a href=&quot;\nhttp://imgsparrow.co/image/TC&quot; rel=&quot;nofollow&quot; target=&quot;_NEW&quot;&gt;\nhttp://imgsparrow.co/image/TC&lt;/a&gt; &lt;a href=&quot;\nhttp://imgsparrow.co/image/T1&quot; rel=&quot;nofollow&quot; target=&quot;_NEW&quot;&gt;\nhttp://imgsparrow.co/image/T1&lt;/a&gt; &lt;a href=&quot;\nhttp://imgsparrow.co/image/b6&quot; rel=&quot;nofollow&quot; target=&quot;_NEW&quot;&gt;\nhttp://imgsparrow.co/image/b6&lt;/a&gt; &lt;a href=&quot;\nhttp://imgsparrow.co/image/b8&quot; rel=&quot;nofollow&quot; target=&quot;_NEW&quot;&gt;\nhttp://imgsparrow.co/image/b8&lt;/a&gt; &lt;a href=&quot;\nhttp://imgsparrow.co/image/b9&quot; rel=&quot;nofollow&quot; target=&quot;_NEW&quot;&gt;\nhttp://imgsparrow.co/image/b9&lt;/a&gt; &lt;a href=&quot;\nhttp://imgsparrow.co/image/bL&quot; rel=&quot;nofollow&quot; target=&quot;_NEW&quot;&gt;\nhttp://imgsparrow.co/image/bL&lt;/a&gt;\n &lt;a href=&quot;\nhttp://imgsparrow.co/image/N2&quot; rel=&quot;nofollow&quot; target=&quot;_NEW&quot;&gt;\nhttp://imgsparrow.co/image/N2&lt;/a&gt;","torrent":{"xt":"urn:btih:09fd77e6d67889b0f9e5fb3c9f0b72a8a60b9a1f","amp;dn":"Heartless+%282014%29+DTH+Rip+-+XviD+-+%5B1CD%5D+-+Eng+Subs+-+Team+IcTv+E","amp;tr":["udp%3A%2F%2Ftracker.openbittorrent.com%3A80","udp%3A%2F%2Fopen.demonii.com%3A1337","udp%3A%2F%2Ftracker.coppersurfer.tk%3A6969","udp%3A%2F%2Fexodus.desync.com%3A6969"],"infoHash":"09fd77e6d67889b0f9e5fb3c9f0b72a8a60b9a1f","infoHashBuffer":{"type":"Buffer","data":[9,253,119,230,214,120,137,176,249,229,251,60,159,11,114,168,166,11,154,31]},"announce":[],"urlList":[]}}